<?xml version="1.0" encoding="UTF-8"?>
<svg id="Calque_2" data-name="Calque 2" xmlns="http://www.w3.org/2000/svg" viewBox="0 0 408.68 230.72" fill="white">
    <g id="Calque_1-2" data-name="Calque 1">
        <g>
            <path d="m408.68,219.19h-92.74c1.8-38.01-11.59-68.73-44.02-91.65,7.19-3.01,13.32-6.65,19.93-8.14,21.62-4.85,43.75-6.02,65.04.18,28.82,8.39,45.66,28.67,51,58.32.13.74.52,1.44.78,2.16v39.12Z"/>
            <path d="m117.68,230.72c-.8-22.1-.97-43.67,12.39-62.68,12.9-18.35,30.37-29.55,52.65-31.27,15.58-1.21,31.49-1.32,47,.4,34.71,3.85,61.33,34.02,62.3,68.92.23,8.1.03,16.22.03,24.63H117.68Z"/>
            <path d="m260.96,59.02c-.1,26.03-16.23,49.22-39.43,56.66-24.11,7.74-48.62-1.45-63.33-23.74-16.51-25.02-10.69-61.34,12.82-79.94,27.9-22.08,67.84-12.64,83.56,19.75,4.18,8.62,6.39,17.68,6.38,27.27Z"/>
            <path d="m136.2,128.65c-30.63,22.17-44.33,52.35-42.16,90.16H.39c-.07-.09-.37-.3-.36-.5.2-13.41-.55-26.93.84-40.22,3.07-29.41,27.6-55.37,56.81-60.15,18.94-3.1,38.18-3.49,57.03.92,7.48,1.75,14.48,5.54,21.7,8.4-.07.46-.14.92-.21,1.38Z"/>
            <path d="m373.06,58.05c-1.18,22.76-10.28,39.21-30.06,48.37-20.52,9.5-44.16,2.36-57.79-16.67-15.74-21.98-11.96-53.08,8.57-70.62,26.84-22.93,68.46-8.89,77.21,26.12,1.15,4.59,1.53,9.38,2.07,12.79Z"/>
            <path d="m133.3,58.5c-1.36,22.21-10.32,38.83-30.15,47.92-20.8,9.54-44.59,2.21-58-17.01-16.38-23.48-10.74-57.13,12.24-72.97,28.1-19.37,65.85-4.13,74.05,29.97,1.02,4.23,1.34,8.63,1.86,12.09Z"/>
        </g>
    </g>
</svg>