<?xml version="1.0" encoding="UTF-8"?>
<svg id="Calque_2" data-name="Calque 2" xmlns="http://www.w3.org/2000/svg" viewBox="0 0 383.42 335.41">
  <g id="Calque_1-2" data-name="Calque 1">
    <g>
      <path d="m0,48.06c1.83-4.23,5.01-6.91,9.3-8.56,5.91-2.28,11.72-4.83,17.6-7.19,2.06-.82,4.21-1.42,6.78-2.27,0,1.79,0,3.23,0,4.67,0,78.32,0,156.63,0,234.95,0,11.77,5.73,20.39,16.12,23.25,3.58.98,7.86,1.43,11.35.44,24.94-7.1,48.3-1.98,71,8.56,14.68,6.81,27.95,15.8,39.72,26.94.6.57,1.09,1.24,2.14,2.44-7.9-1.55-15.04-3.06-22.22-4.35-30.99-5.56-62.13-7.29-93.29-1.95-13.8,2.36-27.44,5.84-41.03,9.28-9.31,2.36-12.99,1.22-17.46-7.01V48.06Z"/>
      <path d="m202.86,306.19c0-1.65,0-2.86,0-4.07,0-88.94.02-177.88-.07-266.81,0-3.05,1.01-5.08,3.16-7.08,14.2-13.23,31.35-20.48,49.98-24.58,22.48-4.95,44.93-5.09,67.31.97,3.09.84,3.95,2.2,3.94,5.34-.09,85.82-.07,171.64-.07,257.46,0,1.35,0,2.7,0,3.95-47.68-10.89-87.21,6.21-124.25,34.82Z"/>
      <path d="m180.39,306.17c-37.08-28.67-76.63-45.68-124.25-34.82v-4.01c0-85.69.03-171.38-.1-257.07,0-3.56,1.07-4.88,4.37-5.8C75.75.19,91.32-.62,107.09.67c17.27,1.41,34.07,5.05,49.37,13.29,7.8,4.2,14.73,10.07,21.86,15.45,1.21.91,1.99,3.17,1.99,4.8.09,89.68.08,179.37.08,269.05,0,.83,0,1.66,0,2.91Z"/>
      <path d="m209.33,329.99c7.14-5.53,14.01-11.46,21.48-16.51,16.78-11.34,34.97-19.43,55.2-22.45,11.76-1.76,23.31-1.03,34.79,2.06,12.11,3.26,24.09-3.13,27.56-14.79.91-3.04,1.16-6.38,1.16-9.58.06-77.96.05-155.92.05-233.88,0-1.48,0-2.95,0-5.62,10.06,4.39,19.55,8.32,28.83,12.71,3.31,1.56,4.74,4.98,4.84,8.74.02.87,0,1.75,0,2.62,0,89.56-.11,179.12.17,268.68.03,9.13-6.68,15.96-17.02,12.55-30.24-9.98-61.4-13.8-93.16-12.41-20.19.88-40.12,3.94-59.82,8.43-1.13.26-2.29.4-3.43.6-.22-.38-.44-.76-.66-1.14Z"/>
    </g>
  </g>
</svg>