<?xml version="1.0" encoding="UTF-8"?>
<svg id="Calque_2" data-name="Calque 2" xmlns="http://www.w3.org/2000/svg" viewBox="0 0 511.03 450.84" fill="white">
    <g id="Calque_1-2" data-name="Calque 1">
        <g>
            <path d="m0,171.39V59.6h152.97V0h205.44v59.84h152.58v5.99c0,30.6.12,61.2-.09,91.79-.05,7.27-.71,14.61-1.9,21.78-8.37,50.58-54.43,90.15-105.71,90.71-26.44.29-52.88.09-79.32.08-1.1,0-2.21-.21-3.82-.37v-29.33h-129.61v29.72c-25.29,0-50.03.07-74.78-.05-6.63-.03-13.34-.07-19.86-1.08-41.78-6.5-71.07-29.51-87.65-68.2C4.28,191.58,2.69,181.25,0,171.39ZM328.14,30.01h-145.1v29.35h145.1v-29.35Z"/>
            <path d="m0,450.84C0,382.64,0,314.44,0,246.24c1.36,1.45,2.77,2.84,4.06,4.35,9.69,11.33,20.9,20.89,33.6,28.69,24.18,14.86,50.65,20.97,78.8,20.87,22.79-.08,45.58-.02,68.36-.02h5.89v29.57h129.83v-29.57c2.16,0,3.95,0,5.74,0,23.62,0,47.24.08,70.86-.05,6.64-.04,13.35-.18,19.91-1.09,29.89-4.18,56.33-15.9,78.55-36.65,5.17-4.83,10.58-9.39,15.1-13.39v201.88H0Z"/>
            <path d="m220.77,299.82v-29.35h69.28v29.35h-69.28Z"/>
        </g>
    </g>
</svg>