<?xml version="1.0" encoding="UTF-8"?>
<svg id="Calque_2" data-name="Calque 2" xmlns="http://www.w3.org/2000/svg" viewBox="0 0 384 383.36" fill="white">
    <g id="Calque_1-2" data-name="Calque 1">
        <g>
            <path d="m0,199.11c0-4.99,0-9.98,0-14.97.22-.43.57-.84.64-1.3,1.94-12.64,7.75-23.24,16.84-32.16,5.34-5.24,10.44-10.75,15.96-15.81,4.59-4.21,6.36-9.1,6.35-15.25-.03-11.32-.53-22.78.96-33.94,3.35-25.08,27.6-45.67,52.9-45.98,9.24-.12,18.49-.13,27.73-.03,5.04.05,9.16-1.6,12.69-5.26,5.89-6.1,11.97-12.03,18-18.01,7.14-7.09,15.6-11.92,25.31-14.57,2.37-.65,4.75-1.22,7.13-1.82,5,0,10,0,15,0,.42.23.82.59,1.27.66,12.67,1.92,23.29,7.74,32.24,16.78,5.71,5.76,11.56,11.39,17.19,17.23,3.35,3.47,7.28,5.01,12.03,4.98,8.99-.05,17.99-.09,26.98.04,30.13.43,54.79,25.22,55.02,55.28.07,8.98.04,17.95.02,26.93,0,4.46,1.49,8.2,4.73,11.36,6.34,6.19,12.6,12.47,18.82,18.77,6.97,7.06,11.74,15.42,14.35,24.99.65,2.37,1.23,4.75,1.84,7.12v14.97c-.22.43-.59.83-.66,1.28-1.92,12.52-7.67,23.04-16.6,31.92-5.49,5.46-10.8,11.11-16.48,16.36-4.37,4.04-6.08,8.73-6.08,14.61.01,11.33.51,22.79-.92,33.97-3.24,25.26-27.52,45.98-53.06,46.31-9.37.12-18.75.08-28.12.05-4.61-.01-8.46,1.47-11.73,4.82-6.1,6.26-12.28,12.45-18.55,18.54-22.61,21.96-57.41,21.84-79.89-.26-5.79-5.69-11.64-11.33-17.2-17.24-3.97-4.22-8.57-5.91-14.32-5.92-11.48-.02-23.08.51-34.41-.95-25.15-3.25-45.8-27.36-46.22-52.71-.15-9.35-.1-18.71-.06-28.07.02-4.74-1.48-8.7-4.94-12.05-6.19-6-12.24-12.13-18.32-18.24-7.1-7.13-11.96-15.57-14.63-25.27-.65-2.37-1.21-4.76-1.82-7.14Zm185.62,64.61c1.21,9.07,2.7,11.17,8.23,10.93,2-.09,4.89-.63,5.73-1.98,1.71-2.75,2.3-6.18,3.4-9.48,4.72-1.59,10.18-2.99,15.28-5.21,30.25-13.16,31.79-52.52,15.6-68.96-7.17-7.29-15.88-11.93-25.19-15.71-6.74-2.74-6.75-2.71-6.75-9.9v-23.63c1.04,0,1.69-.16,2.22.02,5.5,1.89,11.04,3.69,16.45,5.81,3.33,1.3,6.48,2.46,10.09,1.09,9.36-3.56,12.58-19.79,4.75-25.94-3.61-2.83-8.17-4.91-12.63-6.09-6.68-1.78-13.66-2.47-20.53-3.64-1.18-8.22-2.99-10.51-8.36-10.49-5.48.02-7.05,2.2-8.22,11.5-3.71.92-7.52,1.6-11.15,2.85-3.75,1.29-7.48,2.83-10.93,4.78-21.38,12.06-27.16,41.48-11.76,59.61,6.3,7.42,14.73,11.77,23.5,15.54,3.52,1.51,8.37,2.22,10.11,4.91,1.78,2.75.51,7.48.52,11.34.02,7.43,0,14.87,0,23.66-5.75-2.81-10.71-4.99-15.42-7.61-3.59-1.99-6.78-4.67-10.3-6.79-3.61-2.17-7.42-2.69-11.34-.48-9.21,5.18-12.35,18.05-5.53,26.03,3.7,4.33,8.65,7.9,13.65,10.73,8.69,4.92,18.46,6.56,28.6,7.12Z"/>
            <path d="m200.05,233.36v-27.77c6.37,1,12.6,7.48,12.93,13.4.4,7.27-3.66,11.93-12.93,14.38Z"/>
            <path d="m187.98,165.05c-7.86-1.71-14.03-7.72-13.67-13.27.37-5.8,5.86-10.37,13.67-11.23v24.5Z"/>
        </g>
    </g>
</svg>