<?xml version="1.0" encoding="UTF-8"?>
<svg id="Calque_2" data-name="Calque 2" xmlns="http://www.w3.org/2000/svg" viewBox="0 0 384 270.1">
  <g id="Calque_1-2" data-name="Calque 1">
    <g>
      <path d="m0,28.56c1.05-3.03,2.11-6.06,3-8.6,38.68,38.38,77.35,76.75,116.13,115.23C80.52,173.48,41.91,211.78,3.1,250.28c-.91-2.56-2.01-5.64-3.1-8.71C0,170.57,0,99.56,0,28.56Z" style="fill: #fff;"/>
      <path d="m384,241.57c-1.05,3.03-2.1,6.05-2.99,8.61-38.68-38.39-77.34-76.76-116.12-115.24,38.6-38.29,77.22-76.58,116.02-115.07.9,2.54,1.99,5.61,3.09,8.68v213.02Z" style="fill: #fff;"/>
      <path d="m364.23,3.98c-10.57,10.45-21.21,20.83-31.71,31.35-43.18,43.26-86.44,86.46-129.37,129.97-6.35,6.43-15.97,6.4-22.28.01C128.14,111.99,75.09,58.97,22.12,5.87c-.7-.7-1.55-1.26-2.32-1.88.04-.43.08-.86.12-1.29,3.73-.87,7.45-1.8,11.21-2.57,1.2-.25,2.49-.07,3.74-.07,104.75,0,209.5-.03,314.25.09,4.96,0,9.93,1.32,14.89,2.03.07.6.15,1.2.22,1.81Z" style="fill: #fff;"/>
      <path d="m365.07,267.7c-5.66.89-10.35,2.25-15.05,2.27-33.11.19-66.23.1-99.34.1-71.97,0-143.95-.01-215.92.03-5.19,0-10.1-.82-15.04-3.22,38.81-38.51,77.37-76.77,116.17-115.26,4.05,4.04,8.62,8.6,13.19,13.15,6.55,6.53,12.89,13.28,19.69,19.53,12.89,11.83,33.64,11.95,46.47-.01,10.41-9.71,20.23-20.06,30.29-30.13.97-.97,1.85-2.02,2.42-2.65,38.83,38.53,77.44,76.84,117.11,116.2Z" style="fill: #fff;"/>
    </g>
  </g>
</svg>