<?xml version="1.0" encoding="UTF-8"?>
<svg id="Calque_2" data-name="Calque 2" xmlns="http://www.w3.org/2000/svg" viewBox="0 0 383.27 338.35" fill="white">
    <g id="Calque_1-2" data-name="Calque 1">
        <g>
            <path d="m383.27,309.89c-2.07,7.84-5.29,14.99-11.7,20.35-6.14,5.13-13.13,8.07-21.18,8.08-32.18.04-64.35.07-96.53,0-17.9-.04-32.94-15.02-33.01-32.85-.07-17.83,0-35.67.02-53.5,0-.23.11-.47.31-1.21h162.08v59.13Z"/>
            <path d="m383.27,228.3h-161.88c-3.96-19.03,9.59-43.89,39.3-41.4,0-5.84-.09-11.65.02-17.45.2-11,4.79-19.57,14.82-24.46,3.35-1.63,7.35-2.51,11.09-2.65,9.71-.36,19.45-.13,29.18-.12,16.23.01,27.43,11.1,27.62,27.4.07,5.7.01,11.41.01,17.3,4.05.19,7.84-.09,11.44.61,14.78,2.84,24.07,11.66,27.72,26.33.15.59.46,1.15.69,1.72v12.73Zm-99.68-41.38h36.92c0-6.4.22-12.6-.19-18.77-.08-1.24-2.51-3.28-3.91-3.32-9.57-.29-19.16-.29-28.73,0-1.4.04-3.82,2.08-3.91,3.32-.41,6.17-.19,12.37-.19,18.77Z"/>
            <path d="m145.77,149.7c-41.52-.02-74.68-33.49-74.63-75.35C71.18,33.11,104.73-.04,146.39,0c41.3.04,74.48,33.53,74.45,75.15-.03,41.34-33.5,74.57-75.06,74.55Z"/>
            <path d="m110.23,171.49c2.03,12,4.54,22.84,5.46,33.81.55,6.55-1.34,13.32-2.22,19.98-2.63,19.86-5.09,39.75-8.11,59.56-.92,6.06.75,10.49,4.47,15,9.75,11.83,19.2,23.91,28.77,35.9.52.65,1.01,1.34,1.82,2.42-1.54.08-2.6.17-3.65.17-41.41,0-82.82,0-124.22,0-8.1,0-12.52-4.37-12.52-12.38,0-21.95-.06-43.9.01-65.85.14-41.77,32.12-79.73,73.44-86.27,11.97-1.9,24.29-1.6,36.74-2.32Z"/>
            <path d="m181.57,172.15c13.68.38,27.14-1.21,40.89,2.34-.98.9-1.61,1.55-2.31,2.11-13.85,11.11-21.4,25.59-21.64,43.27-.39,28.42-.22,56.84-.05,85.27.06,11.19,3.31,21.57,9.69,30.87.4.58.72,1.21,1.27,2.14h-57.96c5.58-7,10.83-13.58,16.08-20.15,5.29-6.62,10.56-13.25,15.91-19.82,2.92-3.58,3.92-7.33,3.24-12.09-3.71-26.11-7.29-52.24-10.42-78.42-.56-4.64,1.14-9.56,1.88-14.34,1.07-6.87,2.21-13.73,3.42-21.18Z"/>
            <path d="m137.14,217.22h17.82c1.25,9.2,2.48,18.29,3.71,27.39,1.64,12.2,3.21,24.41,4.96,36.59.48,3.35.25,6.11-2.15,8.88-5.27,6.09-10.16,12.52-15.48,19.15-5.98-7.47-11.83-14.55-17.34-21.88-.91-1.21-.61-3.57-.38-5.34,2.64-20.22,5.37-40.42,8.1-60.63.18-1.35.5-2.67.78-4.17Z"/>
            <path d="m155.33,194.49h-18.65c-1.21-7.34-2.42-14.62-3.66-22.14h25.9c-1.19,7.36-2.36,14.6-3.59,22.14Z"/>
        </g>
    </g>
</svg>