<?xml version="1.0" encoding="UTF-8"?>
<svg id="Calque_2" data-name="Calque 2" xmlns="http://www.w3.org/2000/svg" viewBox="0 0 383.31 383.28" fill="white">
    <g id="Calque_1-2" data-name="Calque 1">
        <g>
            <path d="m383.31,208.86c-2.75,6.23-7.49,8.36-14.27,8.33-48.27-.19-96.53-.1-144.8-.1-9.03,0-13.22-4.15-13.1-13.28.14-10.71-.43-21.53.91-32.1,3.2-25.19,15.95-44.93,36.77-59.4.81-.57,2.71-.66,3.44-.11,26.88,20.38,64.49,19.79,90.72-.66.19-.15.45-.2,1-.43,13.99,9.09,24.97,21.16,31.49,36.67,3.33,7.92,4.84,16.62,7.18,24.96.16.58.44,1.13.66,1.69v34.44Z"/>
            <path d="m304.7,0c2.71.76,5.44,1.47,8.13,2.3,23.5,7.24,38.5,29.68,36.71,54.87-1.64,23.13-20.38,43.21-43.79,46.94-34.29,5.47-64.1-22.49-60.84-57.04,2.15-22.81,20.05-42.15,42.83-46.3.69-.13,1.33-.5,1.99-.76,4.99,0,9.98,0,14.97,0Z"/>
            <path d="m39.15,277.24c31.54,21.63,62.53,21.56,93.8.05,18.86,12.66,31.35,29.98,36.93,52.24,3.63,14.5,2.11,29.27,2.16,43.93.02,5.61-5.23,9.78-11.23,9.8-13.85.05-27.69.02-41.54.02-35.55,0-71.1,0-106.65,0-8.3,0-12.72-4.34-12.62-12.65.13-10.59-.39-21.27.8-31.74,3.01-26.47,16.67-46.66,38.34-61.64Z"/>
            <path d="m33.67,218.4c.01-29.02,23.43-52.24,52.67-52.21,29,.02,52.17,23.48,52.14,52.76-.04,28.94-23.55,52.08-52.87,52.04-28.75-.05-51.96-23.54-51.94-52.58Z"/>
            <path d="m285.06,280.02c-3.09,3.23-6.09,6.53-9.28,9.66-4.97,4.88-11.82,5.09-16.4.64-4.67-4.54-4.55-11.62.46-16.67,9.57-9.66,19.19-19.28,28.85-28.85,5.21-5.15,11.74-5.23,16.93-.11,9.77,9.63,19.48,19.34,29.12,29.11,4.85,4.91,4.92,11.9.41,16.4-4.51,4.51-11.48,4.38-16.4-.42-3.21-3.13-6.27-6.43-9.94-10.2-.18,1.62-.36,2.5-.36,3.38-.02,9.98.04,19.96-.03,29.94-.14,21.92-18.41,40.29-40.27,40.4-20.09.1-40.18.04-60.27.01-6.91,0-11.77-4.74-11.74-11.3.03-6.52,4.91-11.13,11.89-11.14,18.97-.02,37.93,0,56.9-.01,13.4,0,21.04-7.69,21.05-21.16.01-9.71,0-19.42,0-29.14l-.92-.56Z"/>
            <path d="m98.22,103.14c3.12-3.22,6.18-6.52,9.39-9.65,4.93-4.81,11.88-4.94,16.4-.43,4.51,4.5,4.44,11.49-.41,16.41-9.64,9.77-19.34,19.48-29.12,29.11-5.19,5.11-11.73,5.04-16.93-.11-9.67-9.57-19.28-19.19-28.85-28.85-5.01-5.05-5.13-12.13-.46-16.66,4.58-4.45,11.44-4.24,16.4.64,3.18,3.13,6.2,6.43,9.92,10.32.14-2.06.27-3.11.28-4.15.02-9.61-.02-19.21.02-28.82.09-22.64,18.26-40.92,40.82-40.99,19.84-.06,39.68-.03,59.52,0,7.02,0,11.9,4.57,11.95,11.09.05,6.72-4.83,11.34-12.07,11.35-18.97.02-37.93,0-56.9,0-13.17.01-20.85,7.73-20.87,20.95-.01,9.81,0,19.62,0,29.43.31.12.61.24.92.36Z"/>
        </g>
    </g>
</svg>