<?xml version="1.0" encoding="UTF-8"?>
<svg id="Calque_2" data-name="Calque 2" xmlns="http://www.w3.org/2000/svg" viewBox="0 0 292.15 383.37" fill="white">
    <g id="Calque_1-2" data-name="Calque 1">
        <g>
            <path d="m8.36,0h275.46c6.26,2.73,8.34,7.5,8.33,14.28-.14,118.5-.1,236.99-.1,355.49,0,9.4-4.02,13.48-13.31,13.48-88.44,0-176.87-.07-265.31.13C5.72,383.39-.01,378.53,0,369.77.19,251.27.17,132.77.03,14.27.02,7.48,2.09,2.73,8.36,0Zm129.28,125.86c6.7-11.74,9.35-23.04,7.88-35.45-3.12-26.25-27.8-47.08-54.29-45.44-30.83,1.91-52.96,28.35-49.33,58.9,4.14,34.78,41.46,55.78,73.33,40.85,5.31-2.48,8.49-3.25,12.73,1.6,3.88,4.45,11.09,3.7,15.13-.4,4.09-4.16,4.29-10.75.24-15.22-1.66-1.83-3.78-3.25-5.69-4.85Zm69.29-80.92c-5.85.54-9.99,3.57-12.14,9.3-3.1,8.26-6.25,16.51-9.39,24.75-6.99,18.35-14.03,36.69-20.94,55.07-2.36,6.28.47,12.68,6.25,14.82,5.95,2.21,11.89-.6,14.48-6.93,1.36-3.33,2.7-6.69,3.85-10.1.62-1.84,1.6-2.44,3.52-2.4,6.36.12,12.72.01,19.08.06,4.23.03,9.4-1.28,12.4.68,2.79,1.83,3.26,7.2,4.76,11.01,2.78,7.01,8.43,9.98,14.72,7.7,4.88-1.76,9.3-8.1,6.18-15.45-2.86-6.75-5.2-13.71-7.79-20.57-7.37-19.53-14.73-39.07-22.15-58.59-2.29-6.01-7.09-9.47-12.83-9.36Zm-30.89,149.68c6.86,0,13.72,0,20.58,0,12.85,0,25.7.09,38.55-.03,9.26-.09,14.8-9.02,10.4-16.62-2.49-4.32-6.5-5.83-11.34-5.83-38.8.03-77.6.02-116.4.02-.75,0-1.5-.04-2.24.05-4.4.54-7.75,2.68-9.62,6.75-1.76,3.84-1.22,7.56,1.24,10.93,2.56,3.51,6.2,4.75,10.43,4.74,19.46-.03,38.92-.01,58.39-.01Zm-.04,44.91c5.11,0,10.23,0,15.34,0,14.6,0,29.19.08,43.79-.03,8.45-.06,13.88-7.42,11.25-14.91-1.69-4.8-6-7.52-12.11-7.52-36.68-.01-73.36,0-110.03,0-2.74,0-5.5-.13-8.23.04-8.24.52-13.32,8.54-9.94,15.74,2.27,4.82,6.37,6.7,11.55,6.69,19.46-.02,38.92,0,58.39,0Zm-.15,44.91c19.71,0,39.42.06,59.13-.03,8.68-.04,14.18-7.52,11.34-15.12-1.73-4.62-6.02-7.3-11.9-7.31-30.44-.02-60.88,0-91.32,0-8.73,0-17.47-.05-26.2.02-5.25.04-9.51,2.91-11.16,7.29-2.86,7.59,2.66,15.09,11.34,15.13,19.59.08,39.17.03,58.76.03Zm.19,44.91c6.86,0,13.72,0,20.58,0,12.85,0,25.7.09,38.55-.03,9.26-.09,14.8-9.02,10.4-16.62-2.49-4.32-6.5-5.83-11.34-5.83-38.8.03-77.6.02-116.4.02-.75,0-1.5-.04-2.24.05-4.4.54-7.75,2.68-9.62,6.75-1.76,3.84-1.22,7.56,1.24,10.93,2.56,3.51,6.2,4.75,10.43,4.74,19.46-.03,38.92-.01,58.39-.01ZM63.78,172.19c-2.62,0-5.25-.15-7.86.03-6.13.43-10.91,5.46-10.86,11.23.05,5.65,4.65,10.71,10.62,11.06,5.35.31,10.74.31,16.08,0,5.97-.34,10.58-5.34,10.68-11.01.09-5.76-4.68-10.83-10.8-11.29-2.61-.19-5.24-.03-7.86-.03Zm-.23,67.33c2.62,0,5.25.13,7.86-.03,6.15-.38,10.95-5.27,11.04-11.07.09-5.76-4.69-10.94-10.82-11.26-5.23-.27-10.49-.26-15.71,0-6.14.3-10.91,5.45-10.85,11.22.06,5.79,4.86,10.71,11,11.11,2.48.16,4.99.03,7.48.03Zm0,44.91c2.62,0,5.25.13,7.86-.03,6.15-.38,10.95-5.27,11.04-11.07.09-5.76-4.69-10.94-10.82-11.26-5.23-.27-10.49-.26-15.71,0-6.14.3-10.91,5.45-10.85,11.22.06,5.79,4.86,10.71,11,11.11,2.48.16,4.99.03,7.48.03Zm.51,22.48c-2.62,0-5.25-.12-7.86.02-6.16.34-10.99,5.16-11.14,10.98-.15,5.88,4.78,11.11,11.09,11.38,4.98.22,9.98.19,14.97.02,6.34-.22,11.3-5.24,11.32-11.16.02-5.92-4.95-10.91-11.28-11.22-2.36-.12-4.74-.02-7.11-.02Z"/>
            <path d="m105.19,124.67c-10.55,6.01-26.73,1.95-35.21-8.97-9-11.58-8.26-28.11,1.71-38.74,10.39-11.07,26.68-12.85,39.11-4.28,11.45,7.89,16.21,23.72,10.38,35.72-5.87-6.5-12.27-11.61-20.53-4.01-3.19,2.93-3.94,7.26-2.16,11.07,1.58,3.38,4.42,6.18,6.69,9.22Z"/>
            <path d="m207.24,84.22c3.01,7.94,5.71,15.07,8.54,22.54h-17.1c2.77-7.3,5.51-14.49,8.57-22.54Z"/>
        </g>
    </g>
</svg>