<?xml version="1.0" encoding="UTF-8"?>
<svg id="Calque_2" data-name="Calque 2" xmlns="http://www.w3.org/2000/svg" viewBox="0 0 383.26 269.54" fill="white">
    <g id="Calque_1-2" data-name="Calque 1">
        <g>
            <path d="m0,241.1C0,218.4,0,195.69,0,172.98c.71-.69,1.44-1.38,2.14-2.08C58.18,115.1,114.22,59.32,170.19,3.46,172.68.97,175.14,0,178.65,0c56.87.11,113.75.06,170.62.08,19.14,0,33.95,14.73,33.96,33.8.03,67.23.03,134.45,0,201.68,0,19.13-14.75,33.96-33.79,33.97-105.27.02-210.54.01-315.81,0-9.75,0-17.87-3.73-24.62-10.7C4.17,253.84,1.8,247.62,0,241.1ZM314.26,89.89c.56-4.05,1.66-7.88,1.49-11.65-.59-13.36-6.63-23.62-18.79-29.61-12.02-5.92-23.68-4.59-34.51,3.13-2.09,1.49-3.18,1.68-5.34.05-20.26-15.24-49.17-3.31-52.8,21.91-.75,5.21.17,10.67.33,16.17-3.41,0-7.27-.04-11.13,0-7.6.09-12.33,4.79-12.35,12.41-.05,14.22-.06,28.43,0,42.65.03,7.56,4.82,12.21,12.47,12.3,3.21.04,6.42,0,9.97,0v4.39c0,16.46,0,32.92,0,49.38,0,9.18,4.36,13.59,13.44,13.6,28.43,0,56.86,0,85.3,0,9.15,0,13.54-4.38,13.55-13.49.01-16.59,0-33.17,0-49.76v-4.12c3.9,0,7.25.07,10.61-.01,6.96-.18,11.76-4.86,11.81-11.81.11-14.59.11-29.18,0-43.77-.05-6.95-4.88-11.61-11.86-11.76-3.98-.09-7.97-.02-12.19-.02Zm-224.69,89.83c10.96,0,21.92.05,32.88-.02,7.09-.04,12.36-4.99,12.27-11.33-.09-6.26-5.22-11.08-12.13-11.09-21.79-.05-43.59-.09-65.38.07-2.47.02-5.2.87-7.33,2.14-4.21,2.52-5.74,7.46-4.35,12.01,1.53,5.03,5.57,8.14,11.17,8.18,10.96.09,21.92.03,32.88.03Zm.29,22.45c-11.08,0-22.17-.08-33.25.03-6.55.07-11.65,5.11-11.68,11.16-.02,6.06,5.05,11.2,11.61,11.23,22.17.1,44.33.16,66.5-.11,2.81-.04,6.01-1.64,8.3-3.45,3.55-2.81,4.28-7.83,2.4-11.94-2.12-4.65-5.95-6.89-11-6.91-10.96-.05-21.92-.01-32.88-.01Z"/>
            <path d="m0,105.62C34.22,71.42,68.46,37.24,102.62,2.97,104.72.86,106.78-.05,109.77,0c10.18.18,20.37.07,31.3.07-1.22,1.38-1.95,2.3-2.77,3.13C93.16,48.35,48.02,93.5,2.86,138.62,2.02,139.46.96,140.08,0,140.8c0-11.73,0-23.45,0-35.18Z"/>
            <path d="m0,28.52c1.97-7.44,4.95-14.29,10.86-19.57C17.25,3.25,24.63.11,33.23.09c12.34-.04,24.68-.01,37.02-.01.93,0,1.87,0,3.52,0-1.25,1.39-1.93,2.22-2.68,2.97C48.26,25.88,25.44,48.71,2.59,71.52,1.84,72.27.87,72.8,0,73.43,0,58.46,0,43.49,0,28.52Z"/>
            <path d="m226.14,201.86v-44.31h22.37c0,3.26-.04,6.57,0,9.89.1,7.07,5.04,12.37,11.37,12.26,6.25-.12,10.96-5.26,11.08-12.18.05-3.23,0-6.46,0-9.97h22.21v44.31h-67.04Z"/>
            <path d="m248.33,112.57v21.96h-44.47v-21.96h44.47Z"/>
            <path d="m271.15,134.55v-22h44.43v22h-44.43Z"/>
            <path d="m248.47,89.87c-4.48,0-8.46.19-12.43-.05-5.77-.35-10.1-5.5-9.98-11.49.11-5.87,4.8-10.68,10.64-10.89,6.01-.22,11.28,3.98,11.71,9.72.31,4.07.06,8.18.06,12.69Z"/>
            <path d="m271.01,89.88c0-4.51-.24-8.61.06-12.68.43-5.85,5.92-10.12,12.06-9.75,5.77.35,10.3,5.29,10.29,11.23,0,5.93-4.51,10.91-10.33,11.17-3.85.17-7.71.03-12.09.03Z"/>
        </g>
    </g>
</svg>