<?xml version="1.0" encoding="UTF-8"?>
<svg id="Calque_2" data-name="Calque 2" xmlns="http://www.w3.org/2000/svg" viewBox="0 0 646.73 959.5">
  <g id="Calque_1-2" data-name="Calque 1">
    <g id="Calque_1-2" data-name="Calque 1-2">
      <path d="m323.46,959.49c-4.67-8.07-8.91-15.4-13.14-22.72-52.28-90.38-104.31-180.9-156.96-271.06-26.12-44.71-53.88-88.46-80.01-133.17-23.64-40.45-44.02-82.53-58.75-127.2-23.79-72.07-17.82-142.85,12.9-210.89C75.89,87.26,159.25,22.22,275.51,4.23c104.17-16.12,196.19,13.98,272.49,87.02,63.59,60.87,95.7,136.61,98.61,224.61,1.29,39-8.43,75.9-22.12,111.96-18.69,49.25-43.64,95.42-71.3,140.03-78.73,126.99-151.43,257.5-226.64,386.55-.83,1.43-1.71,2.83-3.09,5.1h0Zm162.14-636.83c-.02-88.81-72.78-161.36-161.87-161.41-89.61-.05-162.29,72.48-162.32,162-.03,89.4,72.86,162.36,162.16,162.31,89.58-.05,162.05-72.91,162.03-162.9Z" style="fill: #1d1d1b;"/>
    </g>
  </g>
</svg>