<?xml version="1.0" encoding="UTF-8"?>
<svg id="Calque_2" data-name="Calque 2" xmlns="http://www.w3.org/2000/svg" viewBox="0 0 409 346.78">
  <g id="Calque_1-2" data-name="Calque 1">
    <g>
      <path d="m409,316.27c-1.81,6.84-4.15,13.4-9.1,18.72-6.13,6.59-13.58,11.13-22.53,11.39-18.21.53-36.45.26-54.67.3-.38,0-.75-.2-.43-.11.36-7.34.99-14.47,1.02-21.6.11-33.53.03-67.06.06-100.59.01-11.86-.35-23.65-4.38-35-.21-.59-.13-1.29-.24-2.51,19.36,1.16,39.03-3.12,57.3,6.35,17.93,9.31,28.83,23.8,32.25,43.8.11.62.49,1.2.74,1.79v77.45Z"/>
      <path d="m204.39,346.75c-26.73,0-53.47,0-80.2,0-10.7,0-14.73-3.99-14.72-14.6.03-40.03-.1-80.07.2-120.1.2-25.88,22.28-50.7,47.95-54.61,3.53-.54,7.13-.94,10.69-.95,25-.04,50.01-.28,75.01.17,25.7.47,48.48,19.06,54.52,44.05,1.29,5.36,1.81,11.02,1.83,16.55.15,38.44.09,76.88.07,115.32,0,10.06-4.17,14.17-14.35,14.17-27,.02-54,0-81,0Z"/>
      <path d="m204.74,0c39.09.13,71.02,31.86,70.86,70.65-.16,39.6-31.24,71.36-71.14,71.26-40.3-.11-70.87-32.31-70.87-71.53C133.6,31.6,165.76-.13,204.74,0Z"/>
      <path d="m90.32,187.74c-1.06,4.93-2.44,10.04-3.19,15.24-.74,5.11-1.18,10.31-1.19,15.47-.1,37.63-.1,75.27,0,112.9.01,5,.85,9.99,1.32,15.15-.25.04-.88.22-1.52.21-17.29-.03-34.58.24-51.86-.2-18.19-.47-33.23-15.39-33.53-33.48-.39-23.8-.54-47.62.04-71.41.65-26.4,24.33-51.55,50.68-53.71,12.92-1.06,26-.18,39.25-.18Z"/>
      <path d="m80.16,66.08c29.29.21,53.36,24.31,53.03,53.09-.34,29.39-24.48,53.46-53.4,53.26-29.24-.2-53.49-24.71-53.06-53.62.44-29.29,24.4-52.94,53.44-52.73Z"/>
      <path d="m329.02,66.08c29.02-.24,53,23.41,53.46,52.71.46,28.89-23.79,53.42-53.04,53.64-28.92.22-53.04-23.82-53.43-53.24-.37-28.75,23.7-52.87,53-53.11Z"/>
    </g>
  </g>
</svg>