<?xml version="1.0" encoding="UTF-8"?>
<svg id="Calque_2" data-name="Calque 2" xmlns="http://www.w3.org/2000/svg" viewBox="0 0 244.2 383.44">
  <g id="Calque_1-2" data-name="Calque 1">
    <g>
      <path d="m43.69,383.44c-.51-.28-.98-.64-1.52-.83-11.77-4.06-18.04-14.62-15.52-26.71,9.13-43.81,18.36-87.6,27.55-131.4.1-.47.25-.93.48-1.79,8.14,1.46,16.18,2.87,24.2,4.33,21.65,3.93,43.3,7.9,64.95,11.83,8.97,1.63,15.8,6.4,20.74,13.98,5.09,7.81,10.2,15.6,15.69,24,7.4-27.93,14.68-55.45,22.1-83.47-4.08-1-8.11-2.03-12.16-2.96-15.5-3.58-31.01-7.13-46.51-10.71-11.13-2.57-18.32-13.2-16.74-24.83,1.09-8.02,2.28-16.02,3.45-24.02.99-6.73-1.42-11.7-6.76-13.87-4.65-1.89-10.14-.51-12.91,3.79-1.36,2.11-2.14,4.78-2.52,7.29-1.28,8.49-2.33,17.02-3.35,25.54-2.69,22.42,12.35,43.17,34.7,47.94,2.64.56,5.3,1.08,8.13,1.66-.78,4.6-1.49,8.84-2.24,13.26-28.87-5.23-57.33-10.39-86.15-15.61,1.87-8.57,3.63-16.79,5.46-25,4.94-22.2,9.59-44.48,14.98-66.58,4.11-16.81,14.31-28.54,31.58-33,3.54-.92,7.31-.99,11.38-1.51-.67-.48-1.1-.83-1.57-1.13-12.29-7.75-17.14-18.95-15.16-33.17.74-5.29,1.72-10.56,2.85-15.78,3.55-16.35,20.03-27.37,35.93-24.15,17.54,3.56,28.6,19.19,25.66,36.22-.93,5.39-1.58,10.84-2.73,16.19-3.11,14.52-14.41,23.65-30.34,25.14,4.58,2.94,9.91,5.59,14.31,9.33,11.71,9.96,18.31,22.42,17.12,38.34-.25,3.28-.23,6.91.94,9.88,1,2.52,3.47,5.16,5.95,6.27,11.79,5.26,23.81,10.02,36.23,15.16,1.88-7.07,3.68-13.85,5.49-20.63,1.72-6.49,3.33-13.01,5.21-19.45,1.42-4.86,5.66-7.94,10.53-8.12,4.33-.16,9.16,2.7,10.43,7.07.79,2.71.86,5.96.19,8.7-3.21,13.16-6.86,26.21-10.13,39.36-.41,1.65-.05,3.96.85,5.41,5.84,9.44,2.77,20.69-7.08,25.77-1.32.68-2.68,2.24-3.05,3.64-11.87,44.56-23.62,89.15-35.34,133.74-.5,1.9-.65,3.93-.67,5.9-.07,7.73.02,15.47-.04,23.2-.08,10.65-4.79,17.29-14.72,20.99-.41.15-.74.51-1.11.77h-8.98c-1.13-.47-2.27-.92-3.4-1.4-7.66-3.23-12.3-8.95-12.97-17.23-.82-10.18-1.11-20.4-1.6-30.6-.74-15.22-4.25-29.81-13.4-42.06-9.81-13.13-20.85-25.34-31.73-38.41-.57,1.55-.93,2.3-1.13,3.1-9.55,36.4-19.09,72.8-28.61,109.2-2.03,7.78-6.71,13.18-14.24,16.08-1,.39-1.97.88-2.95,1.33h-9.73Z"/>
      <path d="m54.61,119.11c-5.73,25.81-11.38,51.22-17.12,77.06-7.21-1.32-14.28-2.09-21.03-3.97-11.46-3.19-18.3-14.48-16.02-26.89,3.26-17.84,7.22-35.54,10.89-53.3.12-.58.33-1.15.62-2.11,14.18,3.06,28.19,6.09,42.67,9.22Z"/>
      <path d="m81.54,66.49c-10.34,8.69-17.27,18.82-21.68,30.97-14.19-3.08-28.2-6.12-42.64-9.25,5.72-12.07,14.71-19.71,27.05-23.78,12.43-4.1,24.29-.08,37.27,2.06Z"/>
    </g>
  </g>
</svg>