<?xml version="1.0" encoding="UTF-8"?>
<svg id="Calque_2" data-name="Calque 2" xmlns="http://www.w3.org/2000/svg" viewBox="0 0 359.58 335.6">
  <defs>
    <style>
      .cls-1 {
        fill: #fff;
      }
    </style>
  </defs>
  <g id="Calque_1-2" data-name="Calque 1">
    <g>
      <path class="cls-1" d="m36.02,251.15c0-20.46.04-40.92-.04-61.38-.01-2.95.83-5.18,3-7.26,45.32-43.22,90.58-86.49,135.87-129.74,3.57-3.41,6.46-3.39,10.1.08,45.29,43.25,90.58,86.5,135.74,129.88,1.65,1.58,2.81,4.51,2.82,6.82.17,40.42.16,80.84.1,121.25-.02,14.77-10.19,24.77-24.98,24.77-23.21,0-46.41,0-69.62,0-8.51,0-13.23-4.68-13.23-13.1,0-32.56,0-65.12,0-97.68,0-7.21-1.81-9-9.1-9-18.09,0-36.18,0-54.27,0-6.52,0-8.52,1.98-8.52,8.45,0,32.68,0,65.37,0,98.05,0,8.7-4.64,13.28-13.43,13.28-23.33,0-46.66.02-69.99,0-14.05-.01-24.33-10.07-24.42-24.18-.13-20.08-.03-40.17-.03-60.25h.01Z"/>
      <path class="cls-1" d="m239.75,47.89c0-8.14-.01-15.32,0-22.5.02-8.46,4.75-13.19,13.17-13.2,10.85-.01,21.73.42,32.55-.14,8.14-.42,14.52,5.06,14.37,14.51-.41,25.07-.1,50.14-.2,75.21-.01,2.61.79,4.36,2.65,6.13,17.64,16.75,35.23,33.54,52.76,50.41,7.54,7.26,5.3,18.48-4.15,21.14-4.9,1.38-8.94-.26-12.56-3.74-21.24-20.38-42.56-40.69-63.84-61.02-29.49-28.18-58.98-56.36-88.47-84.53-5.1-4.87-7.21-4.89-12.23-.09C123.2,78.39,72.6,126.73,22.01,175.08c-2.67,2.55-5.41,4.72-9.36,4.82-5.14.13-8.99-2.02-11.27-6.53-2.35-4.66-1.64-9.19,1.61-13.26.77-.97,1.69-1.83,2.59-2.69C57.95,107.32,110.31,57.21,162.69,7.12c9.79-9.36,24.22-9.54,34.05-.26,14.14,13.36,28.17,26.85,43.02,41.03Z"/>
    </g>
  </g>
</svg>