<?xml version="1.0" encoding="UTF-8"?>
<svg id="Calque_2" data-name="Calque 2" xmlns="http://www.w3.org/2000/svg" viewBox="0 0 383.26 383.41">
  <g id="Calque_1-2" data-name="Calque 1">
    <g>
      <path d="m369.03,0c1.07.53,2.14,1.05,3.2,1.58,6.78,3.42,10.93,8.82,10.95,16.5.11,43.52.06,87.03.05,130.55,0,.72-.09,1.44-.15,2.44h-54.32c6.46,8.49,8.47,17.42,5.66,27.1-1.83,6.3-5.65,11.33-11.08,15.05-10.95,7.49-25.56,6.37-35.12-2.64-10.97-10.34-11.93-23.55-2.61-39.3h-53.29v-54.12c7.84,5.82,16.25,8.38,25.68,5.9,6.22-1.64,11.37-5.01,15.28-10.14,7.88-10.34,7.67-24.73-.42-34.61-9.78-11.95-21.92-13.22-40.83-4.03V0c45.66,0,91.32,0,136.98,0Z"/>
      <path d="m0,95.81c2.75-7.63,7.48-13.1,15.88-14.55,1.22-.21,2.47-.33,3.71-.33,42.9-.02,85.8-.02,128.69-.01.74,0,1.48.07,2.63.13v54.61c7.3-5.55,14.83-7.98,23.15-6.7,8.43,1.3,15.1,5.65,19.71,12.88,7.12,11.15,5.46,25.61-3.88,35.03-7.78,7.84-22.57,13.09-38.6,1.77v30.86h-24.89c-1.86-16.51-9.49-29.67-23.49-38.8-10.09-6.58-21.32-8.91-33.2-7.5-20,2.38-41.03,17.83-44.48,46.38H0v-113.78Z"/>
      <path d="m0,232.05h54.47c-6.04-7.71-8.13-15.92-6.19-24.92,1.48-6.83,5.25-12.32,10.85-16.51,10.9-8.15,26.1-7.19,36.05,2.11,9.43,8.82,13.04,24.85,2.32,39.1h30.92v24.98c-16.97,2.01-30.54,10.01-39.6,24.97-5.37,8.88-7.79,18.61-7.05,28.94,1.69,23.49,18.86,43.94,46.95,47.32v25.2h-4.33c-34.68,0-69.36,0-104.04,0-10.12,0-15.86-3.95-19.65-13.46-.12-.3-.46-.51-.7-.76,0-45.66,0-91.32,0-136.98Z"/>
      <path d="m302.32,232.34v4.17c0,41.9-.16,83.81.1,125.71.08,12.4-8.88,21.31-21.2,21.18-41.78-.42-83.56-.16-125.34-.16h-4.71v-54.52c-8.65,6.54-17.7,8.58-27.49,5.61-6.27-1.9-11.25-5.77-14.94-11.24-7.2-10.67-6.17-24.9,2.53-34.56,9.95-11.06,22.85-12.11,39.66-2.97v-53.25h54.08c-5.32,6.89-7.86,14.52-6.5,22.95,1.38,8.57,5.94,15.24,13.39,19.77,10.79,6.57,24.76,4.97,33.8-3.78,10.43-10.1,11.19-22.81,2.18-38.93h54.43Z"/>
    </g>
  </g>
</svg>