<?xml version="1.0" encoding="UTF-8"?>
<svg id="Calque_2" data-name="Calque 2" xmlns="http://www.w3.org/2000/svg" viewBox="0 0 210.84 383.25" fill="white">
    <g id="Calque_1-2" data-name="Calque 1">
        <g>
            <path d="m95.02,383.25c-6.98-2.12-13.47-5.03-18.25-10.9-4.48-5.51-7.09-11.79-7.1-18.85-.08-53.62-.05-107.25-.05-160.87,0-.49.1-.98.17-1.69,11.32-3.44,21.49-9.04,29.61-16.73,7.36,4.47,14.43,8.78,21.52,13.06.74.45,1.57.75,2.38,1.07q7.56,3.01,7.56,11.34c0,50.01,0,100.02,0,150.02,0,17.68-7.76,28.03-24.8,33.1-.22.06-.38.3-.57.46h-10.48Z"/>
            <path d="m100.35,0c34.97.02,58.66,33.38,48.09,67.75-5.25,17.05-15.81,30.65-28.4,42.78-5.54,5.34-11.69,10.08-17.71,14.9-.84.67-2.99.85-3.79.26-18.68-13.78-34.94-29.74-44.21-51.53-9.34-21.93-5.32-44.39,10.3-59.73C74.17,5.05,86.69,0,100.35,0Z"/>
            <path d="m210.84,294.38v54.07h-57.51v-130.1h57.4v53.87h-33.91v22.16h34.02Z"/>
            <path d="m30.85,75.26c11.06,32.09,34.21,54.19,61.08,73.07-9.03,16.64-32.38,26.35-52.11,21.83C17.2,164.98.99,146.08.04,123.78c-.91-21.3,12.41-42.42,30.8-48.53Z"/>
            <path d="m108.5,148.34c26.87-18.87,50-40.98,61.08-73.06,17.53,5.32,31.43,26.76,30.87,47.33-.61,22.16-16.51,41.94-37.95,47.19-20.88,5.11-44.42-4.17-54-21.46Z"/>
        </g>
    </g>
</svg>