<?xml version="1.0" encoding="UTF-8"?>
<svg id="Calque_2" data-name="Calque 2" xmlns="http://www.w3.org/2000/svg" viewBox="0 0 372.07 383.27" fill="white">
    <g id="Calque_1-2" data-name="Calque 1">
        <g>
            <path d="m227.21,0c7.03,1.46,14.25,2.32,21.06,4.48,45.58,14.46,73.94,45.18,82.87,92.1,12.14,63.76-29.55,124.62-93.29,136.6-62.77,11.79-120.84-28.56-134.69-88.32-12.61-54.41,12.37-107.41,61.47-132.58,12.18-6.24,25.13-10.11,38.77-11.56C204.36.62,205.3.25,206.25,0c6.99,0,13.97,0,20.96,0Zm-23.23,179.74c0,.25-.3,1.69.07,2.95.68,2.33,1.36,4.84,2.76,6.74,2.66,3.61,7.57,4.74,11.8,3.29,4.68-1.6,7.74-5.4,7.55-10.83-.13-3.8,1.3-5.21,4.6-6.61,16.09-6.8,25.53-24,22.75-41.27-2.26-14.04-11.02-22.6-23.87-27.69-7.27-2.88-14.42-6.06-21.55-9.28-3.66-1.65-6.19-4.29-5.44-8.76.79-4.74,2.94-8.45,7.96-9.77,6.35-1.66,12.21-.81,17.8,2.89,5.36,3.55,12.21,2.1,15.52-2.89,3.53-5.31,2.21-11.94-3.46-15.63-3.1-2.02-6.44-3.89-9.94-5.02-3.01-.97-4.26-2.07-4.41-5.46-.3-6.6-5.31-10.81-11.61-10.57-5.96.23-10.55,5-10.44,11.36.05,2.92-.82,4.14-3.6,5.36-12.74,5.59-19.25,15.86-20.02,29.52-.69,12.32,4.82,21.59,15.54,27.7,2.38,1.35,4.72,2.82,7.23,3.88,6.63,2.82,13.32,5.48,20.02,8.15,4.49,1.79,7.61,4.78,8.38,9.67,1.28,8.11-3.97,16.33-12.06,18.18-8.69,1.99-16.96.79-24.63-4.31-5.65-3.75-12.4-2.22-15.74,3.04-3.47,5.46-1.97,12.38,4.14,15.73,6.36,3.48,13.16,6.17,20.67,9.62Z"/>
            <path d="m59.37,383.24v-4.85c0-33.18.41-66.36-.17-99.53-.29-16.37,8.85-34.28,32.08-39.44,27.15-6.03,52.53-2.53,76.99,10.43,9.32,4.94,18.98,9.38,29.59,11,2.82.43,5.7.55,8.56.56,11.1.06,22.21.26,33.3-.05,8.52-.24,14.29,5.14,13.83,14.05-.79,15.31-8.81,26.5-22.58,29.58-2.88.65-5.94.73-8.92.74-21.08.06-42.16-.04-63.23.12-2.86.02-6.05.67-8.48,2.08-4.26,2.47-5.73,7.64-4.3,12.08,1.58,4.9,5.59,7.88,11,7.9,17.09.05,34.17.02,51.26.03,4.74,0,9.48-.13,14.22.03,9.44.31,17.15-3.26,23.73-9.87,15.65-15.74,31.23-31.57,47.14-47.05,20.43-19.88,53.63-19.82,74.11-.2,5.93,5.68,6.12,12.18.33,17.97-26.61,26.66-53.23,53.31-79.92,79.89-9.82,9.78-21.73,14.56-35.66,14.55-62.86-.05-125.72-.02-188.58-.03h-4.32Z"/>
            <path d="m36.93,272.62v110.32c-.9.11-1.72.29-2.55.29-7.73.02-15.46.07-23.19,0-5.59-.06-9.97-3.89-10.87-9.39-.26-1.59-.31-3.22-.31-4.84-.02-27.31-.02-54.61,0-81.92,0-10.36,4.13-14.45,14.53-14.46,7.33,0,14.66,0,22.4,0Z"/>
        </g>
    </g>
</svg>