<?xml version="1.0" encoding="UTF-8"?>
<svg id="Calque_2" data-name="Calque 2" xmlns="http://www.w3.org/2000/svg" viewBox="0 0 347.06 383.28" fill="white">
    <g id="Calque_1-2" data-name="Calque 1">
        <g>
            <path d="m194.48,383.28h-6.74c-.31-.2-.6-.51-.93-.58-35.19-7.31-70.37-14.63-105.58-21.85-8.98-1.84-12.65-6.85-10.89-15.71,3.07-15.49,6.25-30.95,9.35-46.43,1.38-6.91,2.7-13.83,4.03-20.67-1.22-.65-2.09-1.13-2.98-1.57C20.57,246.39-11.41,178.58,3.73,113.11,21.56,36.02,97.48-13.36,175.2,3.2c56.81,12.1,93.95,47.33,111.19,102.8,3.29,10.6,4.32,21.92,6.03,32.97.62,3.97,1.59,7,5.18,9.53,14.46,10.2,28.65,20.78,42.95,31.22,8.87,6.48,8.64,15.23-.57,21.06-10.11,6.4-20.09,13-30.41,19.03-4.65,2.72-7.26,5.39-5.23,11.08.94,2.64.86,5.64,1.28,8.47,2.89,19.82,5.89,39.63,8.63,59.47,1.27,9.2-3.34,14.07-12.7,14.08-28.45,0-56.89,0-85.34,0-1.44,0-2.87,0-4.2,0-1.63,9.93-3.17,19.26-4.67,28.59-1.53,9.46-3.35,18.88-4.42,28.39-.68,6.09-2.98,10.59-8.44,13.39Zm-93.04-238.57c.07,24.64,20.12,44.7,44.67,44.71,24.72,0,44.79-20.18,44.74-45.01-.04-24.6-20.12-44.7-44.67-44.72-24.68-.02-44.82,20.24-44.74,45.03Zm-39.49,11.02c1.74,0,3.49.04,5.23,0,6.38-.16,11.11-4.57,11.36-10.53.26-6.33-3.94-11.24-10.47-11.76-4.08-.32-8.24-.33-12.32,0-6.55.54-10.7,5.45-10.42,11.79.26,5.95,5,10.34,11.39,10.49,1.74.04,3.49,0,5.23,0Zm168.33,0c1.74,0,3.49.03,5.23,0,6.4-.14,11.18-4.5,11.47-10.43.31-6.32-3.86-11.31-10.37-11.85-4.2-.35-8.49-.37-12.69.03-6.52.62-10.56,5.67-10.14,12.02.38,5.77,5.08,10.05,11.27,10.23,1.74.05,3.49,0,5.23,0Zm-28.54,33.37c-4.51.07-7.92,2.04-9.92,6.1-2.06,4.18-1.65,8.36,1.33,11.87,2.9,3.4,6.1,6.6,9.49,9.5,3.62,3.1,7.91,3.5,12.19,1.26,4.14-2.17,6.06-5.77,5.88-10.41-.26-6.67-12.36-18.31-18.96-18.31ZM70.92,81.51c1.19,2.37,2.02,5.03,3.65,7.05,2.5,3.08,5.46,5.81,8.38,8.51,4.42,4.08,10.98,4.01,15.24.02,4.25-3.98,4.79-10.63.86-15.18-2.92-3.38-6.12-6.59-9.53-9.46-3.53-2.97-7.76-3.25-11.91-1.22-4.05,1.99-5.96,5.46-6.69,10.3Zm119.75,8.76c.24,3.22,2.07,6.79,6.4,8.74,4.27,1.93,8.37,1.4,11.84-1.62,3.28-2.85,6.41-5.94,9.23-9.24,2.99-3.48,3.51-7.63,1.5-11.86-1.94-4.1-5.37-6.15-9.83-6.29-6.84-.21-19.11,11.99-19.15,20.26Zm-119.06,119.25c.14,3,1.98,6.34,5.87,8.35,4.01,2.08,8.16,1.94,11.58-.88,3.73-3.07,7.2-6.54,10.31-10.25,2.83-3.38,3.13-7.48,1.07-11.55-2.06-4.05-5.43-6.05-9.93-6.07-7.02-.02-18.97,12.07-18.9,20.39Zm63.55-149.24s0,0-.01,0c0,2.12-.1,4.24.02,6.35.33,5.94,5.14,10.51,10.96,10.52,5.85,0,10.75-4.59,10.98-10.5.16-4.23.17-8.47-.01-12.7-.24-5.69-5.06-10.22-10.76-10.37-5.76-.15-10.77,4.45-11.15,10.35-.13,2.11-.02,4.23-.02,6.35Zm.02,168.42c0,2.24-.13,4.49.03,6.72.41,5.67,5.34,10.16,10.98,10.14,5.65-.03,10.63-4.56,10.9-10.22.21-4.35.2-8.72,0-13.07-.24-5.68-5.13-10.22-10.81-10.33-5.6-.11-10.64,4.39-11.07,10.04-.17,2.23-.03,4.48-.04,6.72Z"/>
            <path d="m146.01,166.98c-12.35-.02-22.36-9.94-22.5-22.27-.13-12.31,10.14-22.63,22.55-22.65,12.47-.02,22.7,10.15,22.67,22.52-.04,12.46-10.14,22.42-22.72,22.4Z"/>
        </g>
    </g>
</svg>