<?xml version="1.0" encoding="UTF-8"?>
<svg id="Calque_2" data-name="Calque 2" xmlns="http://www.w3.org/2000/svg" viewBox="0 0 408.93 408.91" fill="white">
    <g id="Calque_1-2" data-name="Calque 1">
        <g>
            <path d="m408.93,162.08c-1.82,6.53-3.96,12.84-8.62,18.1-7.17,8.09-16.06,12.88-26.79,12.92-48.8.19-97.61.28-146.41-.01-19.54-.11-35.26-16.46-35.32-35.95-.12-39.76-.09-79.52,0-119.28.04-17.54,11.45-31.95,28.96-37.01.74-.21,1.44-.56,2.15-.85,51.63,0,103.26,0,154.9,0,.71.28,1.41.64,2.14.84,8.41,2.32,15.31,6.83,20.82,13.66,4.36,5.41,6.4,11.73,8.18,18.23v129.35Zm-72.66-64.66c0,11.57-.07,23.14.02,34.71.06,7.65,5.29,13.22,12.07,13.13,6.67-.09,11.81-5.52,11.84-12.96.08-23.27.1-46.55-.08-69.82-.02-2.63-.99-5.55-2.38-7.81-2.74-4.45-7.95-5.97-12.92-4.47-5.2,1.58-8.47,6.01-8.52,12.1-.1,11.7-.03,23.41-.03,35.11Zm-47.91,11.97c0,7.58-.07,15.16.02,22.74.09,7.65,5.29,13.22,12.07,13.13,6.67-.09,11.79-5.52,11.84-12.95.1-15.29.14-30.59-.08-45.87-.04-2.63-.99-5.55-2.37-7.81-2.74-4.45-7.95-5.98-12.92-4.47-5.07,1.54-8.4,5.87-8.51,11.69-.15,7.84-.04,15.69-.05,23.54Zm-23.96,12c0-3.86.12-7.71-.03-11.56-.27-7.08-5.55-12.42-12.01-12.37-6.5.05-11.71,5.38-11.87,12.51-.16,7.57-.16,15.16,0,22.73.15,7.15,5.29,12.47,11.81,12.57,6.64.11,11.88-5.34,12.09-12.71.11-3.72.02-7.44.01-11.17Z"/>
            <path d="m408.93,400.02c-2.93,6.65-7.98,8.95-15.23,8.89-30.32-.27-60.64-.11-90.96-.11h-4.22c3.88-21.97,1.84-43-7.18-63.63,35.46,23.78,68.21,20.07,99.22-7.88,9.21,10.26,15.08,22.37,17.52,36.17.2,1.15.56,2.28.85,3.41v23.15Z"/>
            <path d="m150.42,337.07c30.91,33.21,79.76,29.7,107.33-.05,9.46,10.39,15.67,22.45,17.62,36.29,1.12,7.97.94,16.16.93,24.24,0,6.57-5.39,11.22-12.45,11.23-26.46.03-52.93.01-79.39.01-13.3,0-26.6.03-39.89-.01-7.79-.02-12.58-4.89-12.7-12.68-.18-11.84-.26-23.63,4.06-34.97,3.39-8.91,8.08-16.97,14.49-24.07Z"/>
            <path d="m203.51,336.94c-26.43-.04-47.7-21.45-47.68-48,.02-26.64,21.46-47.88,48.27-47.81,26.71.07,48.43,21.82,48.33,48.39-.09,26.07-22.16,47.45-48.92,47.41Z"/>
            <path d="m288.37,288.85c.04-26.44,21.43-47.73,47.96-47.72,26.82.01,48.68,21.61,48.64,48.08-.03,26.35-22.05,47.78-49.01,47.72-26.39-.06-47.63-21.51-47.59-48.08Z"/>
            <path d="m143.84,121.48c-.02,26.48-21.39,47.78-47.92,47.78-26.68,0-47.94-21.42-47.88-48.22.06-26.4,21.53-47.62,48.12-47.58,26.44.04,47.7,21.46,47.68,48.02Z"/>
            <path d="m72.24,241.14c26.43.05,47.68,21.48,47.65,48.05-.03,26.62-21.51,47.84-48.35,47.75-26.34-.09-47.52-21.62-47.45-48.25.07-26.38,21.55-47.6,48.15-47.55Z"/>
            <path d="m180.79,221.35c-19.62,7.19-33.89,19.97-42.82,39.07-14.16-27.6-36.12-43.36-67.03-42.95-30.85.41-52.21,16.85-65.48,44.4-3.47-2.93-5.05-6.58-4.37-10.74,3.31-20.37,11.75-38.39,26.7-52.68,7.03-6.72,15.61-11.8,23.46-17.67,1.91-1.43,3.38-.99,5.34.23,26.22,16.31,52.49,16.26,78.82.13,1.28-.78,3.6-1.1,4.87-.48,16.36,7.99,32.45,24.18,40.52,40.69Z"/>
            <path d="m18.18,336.58c29.07,30.78,70.78,30.24,98.97,7.96-9.17,21.2-11.34,42.26-7.41,64.26-1.19,0-2.51,0-3.82,0-30.74,0-61.48,0-92.21,0-8.91,0-13.36-4.6-13.61-13.41-.41-14.35.29-28.51,7.28-41.47,3.19-5.91,7.1-11.44,10.8-17.32Z"/>
        </g>
    </g>
</svg>