<?xml version="1.0" encoding="UTF-8"?>
<svg id="Calque_2" data-name="Calque 2" xmlns="http://www.w3.org/2000/svg" viewBox="0 0 320.54 335.63" fill="white">
    <g id="Calque_1-2" data-name="Calque 1">
        <g>
            <path d="m152.7,223.44c-14.65-3.54-25.53-11.22-31.99-24.4-4.36-8.89-5.66-18.28-3.59-28,4.28-20.08,21.83-34.73,42.04-35.23,20.1-.49,38.32,12.9,43.66,32.19,3.44,12.43,1.66,24.21-5.1,35.15-6.74,10.92-16.87,17.24-29.2,20.39,31.77.44,55.51,22.55,61.83,48.2,1.15,4.67,1.76,9.57,1.93,14.38.31,8.6.13,17.21.08,25.82-.08,13.01-10.57,23.61-23.55,23.63-32.25.05-64.51.05-96.76,0-13.03-.02-23.73-10.55-23.67-23.48.05-11.46-.4-23.01.86-34.35,2.88-25.8,25.42-48.65,51.12-52.89,3.81-.63,7.68-.9,12.34-1.43Z"/>
            <path d="m57.26,215.83c-19.7-5.18-30.84-22.09-28.78-40.31,1.94-17.16,17.09-31.16,33.73-31.54,19.56-.46,34.48,11.64,37.86,30.69,3.18,17.92-7.92,33.75-29.27,41.08,11.89-.09,22.35,2.74,31.47,8.69-5.38,6.2-11.06,11.84-15.69,18.25-9.36,12.98-13.92,27.72-14.05,43.74-.07,8.22-.01,16.44-.01,25-1.43.08-2.63.19-3.82.2-14.75.01-29.51.03-44.26,0-12.89-.03-23.23-9.13-23.93-21.96-.68-12.41-1.36-24.91,3.03-36.99,7.9-21.72,28.5-36.53,51.5-36.85.74-.01,1.48,0,2.23,0Z"/>
            <path d="m262.83,215.78c10.37-.19,19.67,1.88,28.15,6.68,17.65,10.01,27.76,25.08,29.18,45.42.52,7.44.48,14.98-.02,22.42-.81,11.91-11.12,21.26-23,21.32-16.12.08-32.24.02-48.93.02,0-1.74.05-3.3,0-4.87-.43-11.19.08-22.52-1.53-33.54-2.72-18.68-12.33-33.97-26.65-46.27-.66-.56-1.27-1.18-2.2-2.06,9.69-6.43,20.18-9.24,31.64-9.36-9.84-2.51-17.84-7.62-23.37-16.15-5.49-8.48-7-17.74-4.88-27.57,3.66-16.98,19.1-28.38,37.58-27.84,16.33.48,30.71,13.85,33.41,31.07,2.82,17.96-8.03,33.27-29.36,40.73Z"/>
            <path d="m124.35,77.88c3.4-8.72-1.55-16.09-7.92-23.07-2.09-2.3-3.88-4.88-5.75-7.37-4.99-6.68-2.59-14.07,5.36-16.45,6.56-1.97,13.17-3.76,19.68-5.88,1.62-.53,3.31-1.74,4.32-3.12,3.84-5.22,7.4-10.64,11.08-15.97,5.57-8.06,12.99-8.01,18.61.14,3.68,5.33,7.25,10.75,11.07,15.99.93,1.28,2.53,2.37,4.05,2.86,6.51,2.12,13.11,3.92,19.65,5.94,8.3,2.57,10.64,9.73,5.44,16.63-4.05,5.38-8.33,10.6-12.23,16.08-1.11,1.56-1.78,3.79-1.79,5.72-.05,6.85.39,13.71.43,20.56.05,7.4-6.13,12.01-13.16,9.73-6.75-2.19-13.35-4.82-20.1-7.02-1.61-.53-3.68-.58-5.28-.06-6.51,2.1-12.9,4.58-19.38,6.79-7.91,2.71-14.06-1.72-14.07-10.01,0-3.37,0-6.73,0-11.49Z"/>
            <path d="m13.98,97.9c2.43-7.24-1.36-13.54-6.73-19.38-1.68-1.83-3.11-3.9-4.59-5.9-4.5-6.07-2.6-12.02,4.56-14.23,4.88-1.5,9.89-2.64,14.66-4.42,2.26-.85,4.55-2.46,6.05-4.34,3.26-4.08,5.99-8.58,9-12.86,4.19-5.94,10.51-5.96,14.77-.01,3.26,4.56,6.27,9.31,9.61,13.82.94,1.27,2.51,2.37,4.02,2.88,5.42,1.83,10.97,3.28,16.41,5.04,6.71,2.17,8.65,8.19,4.47,13.8-3.35,4.5-6.97,8.81-10.2,13.4-1.05,1.49-1.71,3.57-1.72,5.39-.05,5.48.4,10.96.46,16.45.07,7.13-5.27,10.91-12.05,8.59-5.3-1.81-10.52-3.89-15.85-5.6-1.51-.48-3.43-.51-4.93-.04-5.57,1.77-11.02,3.93-16.58,5.77-6.21,2.06-11.3-1.71-11.35-8.25-.02-2.99,0-5.99,0-10.11Z"/>
            <path d="m276.42,31.18c2.78,2.05,5.44,3.3,7.07,5.35,3.56,4.48,6.5,9.45,9.91,14.06.94,1.27,2.52,2.36,4.04,2.87,5.42,1.82,10.97,3.27,16.41,5.03,6.69,2.17,8.6,8.16,4.41,13.83-3.26,4.41-6.81,8.62-9.96,13.11-1.05,1.49-1.7,3.57-1.75,5.4-.14,5.73.15,11.47.16,17.21,0,6.53-5.13,10.26-11.36,8.22-4.61-1.51-9.27-2.97-13.72-4.88-3.55-1.52-6.71-1.61-10.3-.08-4.57,1.95-9.34,3.47-14.07,5-5.96,1.93-11.27-1.8-11.28-8.05,0-5.73.49-11.47.44-17.2-.02-1.82-.68-3.91-1.73-5.39-3.23-4.58-6.84-8.9-10.2-13.39-4.18-5.59-2.19-11.65,4.51-13.76,4.63-1.46,9.23-3.09,13.96-4.12,3.74-.81,6.12-2.77,8.06-5.91,2.55-4.13,5.22-8.24,8.3-11.97,1.68-2.03,4.31-3.28,7.1-5.31Z"/>
        </g>
    </g>
</svg>