<?xml version="1.0" encoding="UTF-8"?>
<svg id="Calque_2" data-name="Calque 2" xmlns="http://www.w3.org/2000/svg" viewBox="0 0 357.31 356.69" fill="white">
    <g id="Calque_1-2" data-name="Calque 1">
        <g>
            <path d="m254.06,356.69c-2.69-1.04-4.51-2.9-4.71-5.83-.89-12.65.34-24.84,8.44-35.34,8.59-11.15,19.91-17.23,34.03-17.37,9.85-.1,19.81-.47,29.53.77,17.76,2.28,31.58,16.21,35.22,33.92.16.76.49,1.48.75,2.21v21.63h-103.25Z"/>
            <path d="m4.99,356.69c-3.5-1.27-4.8-3.84-4.92-7.48-.34-10.57.27-20.9,6.17-30.17,8.47-13.3,20.51-20.61,36.33-20.88,10.08-.17,20.26-.38,30.23.81,17.29,2.06,32.51,17.97,34.69,35.23.62,4.93.54,9.95.7,14.92.11,3.57-1.36,6.23-4.83,7.57H4.99Z"/>
            <path d="m178.75,127.85c-15.91,0-31.83,0-47.74,0-3.69,0-5.57-1.35-6.02-4.8-3.41-26.12,9.91-45.94,32.07-51.96,3.76-1.02,7.79-1.5,11.69-1.45,10.08.12,20.3-.3,30.19,1.25,17.75,2.78,32.15,19.54,33.48,37.49.35,4.73.33,9.51.03,14.24-.25,3.83-2.14,5.22-5.95,5.23-15.91.01-31.83,0-47.74,0Z"/>
            <path d="m54.16,290.62c-17.18.05-31.2-13.99-31.14-31.19.07-17.13,13.83-30.99,30.89-31.1,17.21-.11,31.29,13.84,31.33,31.03.04,17.27-13.82,31.21-31.08,31.26Z"/>
            <path d="m303.29,290.62c-17.24-.02-31.13-13.97-31.1-31.23.03-17.19,14.1-31.16,31.3-31.06,17.06.1,30.83,13.94,30.92,31.08.09,17.2-13.91,31.24-31.11,31.22Z"/>
            <path d="m180.53.1c17.82.88,30.08,15.98,29.3,31.83-.9,18.35-15.93,31.67-33.12,30.23-18.35-1.54-29.83-16.4-29.12-32.13.9-19.82,17.58-31.2,32.94-29.93Z"/>
            <path d="m319.7,194.44c0,2.43.26,4.89-.06,7.27-.43,3.17-2.59,4.86-5.78,4.94-3.17.08-5.59-1.45-6.03-4.61-.71-5.04-.78-10.17-1.35-15.23-3.71-32.9-18.02-60.36-42.54-82.53-3.27-2.96-6.85-5.56-10.3-8.32-3.42-2.74-4.28-6.53-2.09-9.38,2.3-2.99,6.11-3.4,9.6-.83,29.14,21.49,47.68,49.92,55.63,85.24.86,3.84,1.54,7.74,2.06,11.64.51,3.91.71,7.86,1.04,11.79-.06,0-.11,0-.17.01Z"/>
            <path d="m37.59,194.14c2.69-41.39,19.41-75.74,51.28-102.47,1.64-1.37,4.28-2.71,6.13-2.36,1.98.38,4.43,2.48,5.08,4.38.57,1.66-.49,4.62-1.84,6.07-4.04,4.32-8.8,7.95-12.86,12.25-19.85,21.03-31.42,45.95-34.47,74.75-.38,3.57-.43,7.18-.67,10.77-.09,1.38-.17,2.79-.49,4.13-.82,3.5-3.13,5.28-6.47,4.99-3.37-.29-5.3-2.28-5.64-5.57-.23-2.29-.04-4.63-.04-6.95Z"/>
            <path d="m180.9,341.83c-16.78-.26-31.19-2.25-45.22-6.72-4.26-1.36-6.59-4.7-5.65-8.22.97-3.6,4.52-5.09,9.05-4.11,8.69,1.88,17.35,4.13,26.15,5.29,17.22,2.27,34.22.44,50.88-4.48,1.44-.42,2.9-.89,4.37-1.03,3.47-.32,6.1,1.74,6.8,5.11.57,2.77-1.05,5.99-4.12,6.77-8.73,2.22-17.49,4.44-26.34,6.03-5.9,1.06-12,1.06-15.91,1.36Z"/>
        </g>
    </g>
</svg>