<?xml version="1.0" encoding="UTF-8"?>
<svg id="Calque_2" data-name="Calque 2" xmlns="http://www.w3.org/2000/svg" viewBox="0 0 408.95 408.73">
  <g id="Calque_1-2" data-name="Calque 1">
    <g>
      <path d="m0,110.18c1.07-5.97,1.94-11.98,3.26-17.9,4.64-20.85,14-39.37,27.51-55.27,33.82,33.82,67.54,67.54,101.47,101.47-4.79,7.16-7.23,15.61-3.62,24.61,1.64,4.07,4.13,8.14,7.21,11.24,32.69,32.99,65.54,65.81,98.42,98.61,9.83,9.81,22.05,11.13,34.27,4.27.99-.56,3.2-.46,3.93.26,33.02,32.84,65.95,65.78,98.87,98.72.27.27.4.67.65,1.09-18.55,15.77-39.65,26.24-63.75,29.8-43.58,6.45-81.32-6.13-112.5-37.03-52.64-52.17-104.89-104.75-157.27-157.19-18-18.02-30.04-39.39-35.49-64.32-1.27-5.81-1.99-11.73-2.96-17.61,0-6.92,0-13.84,0-20.76Z" style="fill: #fff;"/>
      <path d="m87.03,0c11.37,2.27,19.55,9.36,27.35,17.4,13.8,14.22,27.99,28.05,41.95,42.11,11.1,11.16,14.78,24.26,9.64,39.36-3.02,8.89-9.95,14.85-16.11,20.74C116.02,85.75,82.31,52.04,48.35,18.07c6.86-8.55,15.67-15.53,27.5-18.07h11.18Z" style="fill: #fff;"/>
      <path d="m390.61,360.83c-34.28-34.28-68.1-68.1-102.02-102.01,6.35-6.44,12.52-13.63,22.11-16.38,14.4-4.14,27.13-1.15,37.77,9.3,16.42,16.12,32.66,32.42,48.81,48.8,12.89,13.07,15.35,29.98,6.09,45.13-3.47,5.67-8.62,10.32-12.77,15.16Z" style="fill: #fff;"/>
    </g>
  </g>
</svg>