<?xml version="1.0" encoding="UTF-8"?>
<svg id="Calque_2" data-name="Calque 2" xmlns="http://www.w3.org/2000/svg" viewBox="0 0 383.27 359.09" fill="white">
    <g id="Calque_1-2" data-name="Calque 1">
        <g>
            <path d="m0,.01h157.67v89.78h-22.18v32.14c-1.52-.93-2.57-1.51-3.56-2.17-14.1-9.39-28.16-18.83-42.32-28.11-1.64-1.07-3.87-1.73-5.83-1.74-27.93-.11-55.85-.07-83.78-.07V.01Z"/>
            <path d="m0,299.43c9.96-10.1,19.95-20.18,29.89-30.31,15.19-15.49,30.35-31.02,45.49-46.55.86-.88,1.47-2,1.96-2.69,27.11,27.11,53.64,53.63,79.79,79.78-4.98,4.98-10.16,10.16-15.98,15.99-1.66-2.22-3.51-4.69-5.37-7.17-.41.23-.82.46-1.23.68v49.93h-45.3v-44.5h-22.09v44.5H21.89v-49.52c-.25-.09-.51-.19-.76-.28-1.58,1.97-3.16,3.94-4.97,6.19C10.7,310.31,5.35,305.24,0,300.18c0-.25,0-.5,0-.75Z"/>
            <path d="m304.39,112.29c-14.84,0-29.69.02-44.53,0-16.49-.03-29.81-10.97-33.26-27.24-3.22-15.21,4.91-30.82,19.63-37.26,2.39-1.05,3.29-2.5,3.82-4.85C255.24,19.81,277.09,1.22,300.31.08c26.31-1.29,49.74,13.96,57.3,37.91,1.73,5.46,3.91,9.09,9.28,12.03,13.34,7.29,19.19,23.17,15.09,37.62-4.19,14.75-17.1,24.63-32.31,24.66-15.09.03-30.18,0-45.28,0Z"/>
            <path d="m351.51,358.86c-5.65-2.94-11.15-5.78-16.63-8.66-9.7-5.09-19.43-10.14-29.05-15.37-2.42-1.31-4.3-1.42-6.8-.07-13.91,7.5-27.93,14.81-41.92,22.16-1.19.62-2.43,1.15-4.24,2,.94-5.77,1.75-11,2.65-16.21,2.1-12.13,4.34-24.24,6.24-36.41.23-1.45-.86-3.56-2-4.69-11.52-11.42-23.16-22.7-34.8-33.99-.71-.69-1.58-1.2-2.38-1.8.1-.34.2-.68.3-1.02,4.43-.67,8.85-1.37,13.28-2.01,12.69-1.84,25.37-3.69,38.07-5.45,2.43-.34,3.84-1.41,4.95-3.7,7.48-15.45,15.13-30.81,23.05-46.87.88,1.57,1.54,2.65,2.1,3.78,7.07,14.28,14.22,28.51,21.08,42.89,1.28,2.68,3,3.61,5.59,3.97,16.52,2.29,33.03,4.61,49.54,6.94.7.1,1.37.39,1.06-.14-4.43,5.03-8.63,10.3-13.36,15.05-7.57,7.6-15.41,14.93-23.3,22.19-2.05,1.89-2.35,3.72-1.9,6.25,2.94,16.53,5.77,33.08,8.63,49.63.06.35-.08.73-.18,1.51Z"/>
            <path d="m247.48,246.86h-111.67c-1.6-15.93.56-30.97,10.38-44.18,9.77-13.13,22.95-20.66,39.23-23.15-9-2.28-16.29-6.81-21.53-14.33-5.31-7.63-7.22-16.14-5.44-25.21,3.44-17.57,17.78-28.5,35.84-27.65,15.46.72,29.21,14.07,30.91,30.01,1.86,17.34-9.07,32.11-28.47,37.26,17.07,2.48,30.32,9.8,40.11,22.91,9.81,13.12,12.06,28.09,10.63,44.35Z"/>
            <path d="m202.67,45.19v22.02h-22.01v-22.02h22.01Z"/>
            <path d="m90.28,157.06h-21.95v-22.12h21.95v22.12Z"/>
            <path d="m292.81,156.94v-21.99h22.02v21.99h-22.02Z"/>
            <path d="m68.32,179.84h21.97v22.03h-21.97v-22.03Z"/>
            <path d="m314.95,179.93v21.98h-22.01v-21.98h22.01Z"/>
            <path d="m180.64,292.09h22v22h-22v-22Z"/>
        </g>
    </g>
</svg>