<?xml version="1.0" encoding="UTF-8"?>
<svg id="Calque_2" data-name="Calque 2" xmlns="http://www.w3.org/2000/svg" viewBox="0 0 383.25 383.35" fill="white">
    <g id="Calque_1-2" data-name="Calque 1">
        <g>
            <path d="m383.25,375.02c-2.75,6.24-7.49,8.35-14.28,8.33-73.35-.16-146.71-.1-220.06-.1-9.36,0-13.42-4.04-13.42-13.36,0-66.87,0-133.73,0-200.6,0-7.47,4.23-12.02,11.81-12.01,0,4.02-.07,8.06.01,12.1.32,15.89,10.16,28.35,25.5,32.35,20.14,5.26,40.69-10.02,41.35-30.8.14-4.46.02-8.93.02-13.69h11.7c0,3.55-.02,7.1,0,10.66.12,18.61,11.25,31.61,29.58,34.58,17.72,2.87,36.38-12.14,37.23-30.09.24-4.95.04-9.92.04-15.17h11.75c0,3.57-.02,7.14,0,10.7.12,18.6,11.26,31.59,29.6,34.56,17.71,2.87,36.36-12.17,37.21-30.12.23-4.96.04-9.94.04-15.15,6.58-.38,9.64,3.35,11.92,8.22v209.59Zm-73.33-41.17c-.57,1.06-.94,1.67-1.24,2.31-2.34,4.93-1.12,10.72,2.89,13.88,4.33,3.4,10.21,3.36,14.39-.52,6.77-6.27,13.44-12.66,19.95-19.2,4.22-4.24,4.33-11,.16-15.21-6.66-6.74-13.48-13.33-20.51-19.69-3.51-3.17-7.87-3.6-12.19-1.31-4.15,2.2-6.22,5.75-5.78,10.42.21,2.26,1.14,4.46,1.78,6.85-6.31,0-12.66.16-19-.12-1.41-.06-3.21-1.37-4.04-2.63-4.18-6.34-8.18-12.81-12.02-19.36-.64-1.09-.72-3.18-.1-4.24,3.9-6.66,8-13.21,12.2-19.69.73-1.12,2.2-2.42,3.38-2.47,6.55-.24,13.1-.11,20.14-.11-.6,1.09-.98,1.69-1.28,2.34-2.38,5.08-1,11.01,3.26,14.08,4.5,3.24,10.13,2.94,14.38-1.05,6.46-6.05,12.85-12.18,19.15-18.41,4.76-4.71,4.95-11.43.34-16.05-6.52-6.53-13.17-12.94-19.97-19.17-3.5-3.21-7.78-3.83-12.16-1.65-4.34,2.16-6.52,5.79-6.06,10.62.21,2.26,1.15,4.44,1.79,6.81-5.73,0-11.46.04-17.19,0-11.01-.09-19.47,4.33-25.15,13.9-2.26,3.81-4.7,7.51-7.32,11.69-2.68-4.27-5.12-7.99-7.39-11.81-5.62-9.43-13.98-13.82-24.84-13.77-6.07.03-12.15,0-18.6,0,.56-1.13.95-1.87,1.29-2.63,2.22-4.93.81-10.75-3.32-13.77-4.35-3.18-10.06-3.05-14.1.71-6.76,6.29-13.42,12.67-19.94,19.21-4.21,4.22-4.35,11-.19,15.21,6.66,6.74,13.48,13.33,20.51,19.69,3.51,3.18,7.86,3.61,12.19,1.32,4.16-2.19,6.22-5.75,5.79-10.42-.21-2.26-1.13-4.46-1.78-6.86,6.56,0,13.16-.15,19.74.12,1.41.06,3.21,1.37,4.04,2.62,4.18,6.34,8.19,12.81,12.02,19.36.64,1.09.73,3.18.11,4.24-3.9,6.66-8.01,13.21-12.21,19.69-.73,1.12-2.21,2.43-3.38,2.47-6.8.23-13.61.11-20.87.11.63-1.19,1.06-1.91,1.4-2.67,2.2-4.92.75-10.75-3.4-13.74-4.38-3.16-10.04-2.99-14.1.79-6.75,6.29-13.43,12.67-19.94,19.21-4.23,4.24-4.3,10.98-.11,15.21,6.58,6.64,13.33,13.13,20.22,19.45,3.5,3.21,7.78,3.83,12.16,1.66,4.36-2.15,6.51-5.79,6.07-10.62-.21-2.25-1.14-4.44-1.78-6.81,5.86,0,11.72-.07,17.58.02,11.32.17,19.95-4.38,25.73-14.23,2.17-3.71,4.55-7.3,7.09-11.36,2.69,4.28,5.12,8.01,7.41,11.83,5.63,9.43,14.01,13.79,24.85,13.75,5.82-.02,11.64,0,17.91,0Z"/>
            <path d="m196.11,0c5.73,1.89,11.12,4.3,15,9.22,3.66,4.63,5.93,9.77,5.97,15.75.04,6.72,0,13.43,0,20.7h4.25c23.32,0,46.65,0,69.97,0,8.32,0,12.62,4.27,12.63,12.64.02,24.2,0,48.39,0,72.59,0,1.1,0,2.2,0,3.54h-11.1c0-3.01.02-5.96,0-8.91-.13-18.64-11.15-31.57-29.52-34.65-17.58-2.94-36.41,12.18-37.3,30.05-.22,4.44-.03,8.91-.03,13.55h-11.75c0-3.11.02-6.07,0-9.02-.15-18.61-11.28-31.58-29.63-34.53-17.66-2.84-36.35,12.26-37.19,30.15-.2,4.34-.03,8.69-.03,13.34-3.22.2-6.08.11-8.83.6-15.43,2.75-25.37,14.61-25.54,30.36-.06,5.59,0,11.18,0,17.17-8.62-.79-16.91-1.34-25.13-2.35-26.32-3.22-52.37-7.91-78.03-14.71C2.96,163.65.02,160.01.01,152.98,0,121.17,0,89.37,0,57.56c0-7.3,4.59-11.89,11.87-11.89,23.45-.02,46.9,0,70.34,0,1.35,0,2.71,0,4.57,0,0-4.91.28-9.63-.05-14.29-1.16-16.17,6.2-27.05,21.04-31.37h88.33Zm-1.48,45.49c0-6.09.02-11.92,0-17.75-.02-4.22-1.08-5.27-5.3-5.27-10.6-.02-21.2,0-31.8,0-14.34,0-28.68.03-43.02-.03-2.67-.01-5.02.54-5.13,3.55-.22,6.44-.07,12.89-.07,19.51h85.32Z"/>
            <path d="m112.81,292.67h-11.52c-25.81,0-51.62,0-77.43,0-7.34,0-12.35-4.35-12.38-11.52-.14-30.05-.06-60.09-.05-90.14,0-.48.17-.95.36-1.93,33.31,7.62,66.82,13.39,101.01,15.96v87.63Z"/>
            <path d="m192.19,146.83c0,6.98.05,13.96-.01,20.94-.07,7.51-4.69,12.59-11.35,12.62-6.68.03-11.44-5.05-11.47-12.48-.06-14.09-.06-28.17,0-42.26.03-7.5,4.67-12.58,11.34-12.61,6.69-.03,11.4,5.02,11.48,12.48.07,7.11.02,14.21.02,21.32Z"/>
            <path d="m270.79,147.09c0,6.86.04,13.72-.01,20.58-.06,7.7-4.77,12.81-11.62,12.72-6.6-.08-11.18-5.23-11.2-12.76-.04-13.97-.05-27.94,0-41.9.03-7.55,4.6-12.65,11.24-12.71,6.87-.06,11.53,5.01,11.58,12.75.05,7.11.01,14.22.01,21.33Z"/>
            <path d="m349.39,146.71c0,6.98.04,13.97-.01,20.95-.06,7.7-4.77,12.81-11.62,12.73-6.6-.08-11.18-5.23-11.2-12.76-.04-13.97-.05-27.94,0-41.9.03-7.55,4.6-12.65,11.24-12.71,6.87-.06,11.53,5.01,11.58,12.75.05,6.98.01,13.97.01,20.95Z"/>
        </g>
    </g>
</svg>