<?xml version="1.0" standalone="no"?>
<!DOCTYPE svg PUBLIC "-//W3C//DTD SVG 20010904//EN"
 "http://www.w3.org/TR/2001/REC-SVG-20010904/DTD/svg10.dtd">
<svg version="1.0" xmlns="http://www.w3.org/2000/svg"
 width="300.000000pt" height="300.000000pt" viewBox="0 0 300.000000 300.000000"
 preserveAspectRatio="xMidYMid meet">
<metadata>
Created by potrace 1.14, written by Peter Selinger 2001-2017
</metadata>
<g transform="translate(0.000000,300.000000) scale(0.100000,-0.100000)"
fill="#000000" stroke="none">
<path d="M647 2114 c-1 -1 -20 -5 -42 -8 -73 -12 -210 -90 -248 -141 -45 -61
-88 -147 -98 -193 -10 -50 -18 -63 -65 -105 -93 -83 -132 -169 -129 -278 4
-103 67 -212 160 -279 13 -9 26 -36 33 -68 18 -80 57 -153 109 -208 49 -50
102 -90 116 -86 4 1 7 -3 7 -8 0 -6 8 -10 18 -10 10 0 22 -3 26 -7 28 -28 203
-42 270 -21 17 5 38 11 48 13 51 11 135 74 182 137 58 77 97 179 120 313 16
92 14 408 -3 494 -46 238 -145 374 -316 436 -33 12 -180 27 -188 19z m188
-145 c113 -53 188 -170 189 -294 1 -38 -3 -83 -7 -98 -7 -24 -9 -26 -22 -13
-8 8 -15 19 -15 24 0 6 -26 34 -59 64 -100 93 -229 141 -376 139 -77 -1 -95
-3 -142 -17 -29 -8 -30 8 -1 55 44 74 112 127 203 160 49 17 173 7 230 -20z
m-122 -319 c70 -26 132 -72 169 -125 46 -65 52 -136 18 -211 -62 -142 -284
-223 -470 -173 -57 15 -71 26 -66 53 3 11 5 21 6 21 1 0 3 8 5 18 5 25 43 98
65 122 20 23 32 65 19 65 -5 0 -9 6 -9 13 0 8 -9 22 -19 31 -22 20 -58 98 -66
145 -5 27 -2 33 22 42 87 33 236 33 326 -1z m-411 -196 l26 -51 -34 -68 c-19
-37 -34 -73 -34 -81 0 -27 -30 -1 -55 49 -41 82 -32 168 26 242 l24 29 10 -34
c6 -19 22 -58 37 -86z m718 -244 c16 -58 3 -166 -26 -222 -62 -119 -195 -194
-326 -182 -29 3 -59 6 -65 6 -7 1 -13 5 -13 10 0 4 -9 8 -19 8 -11 0 -26 7
-34 15 -8 8 -16 12 -19 10 -8 -8 -94 81 -115 121 -32 59 -30 63 27 48 97 -25
298 -2 365 42 12 8 25 11 28 7 4 -3 7 -1 7 5 0 7 4 12 10 12 22 0 135 108 145
139 10 32 23 25 35 -19z"/>
<path d="M2606 2113 c-1 -1 -311 -11 -551 -17 -53 -2 -62 -9 -58 -48 2 -18 5
-151 8 -295 l5 -263 -318 -2 -317 -3 0 -85 0 -85 730 0 730 0 1 177 1 178 -56
-6 c-30 -3 -58 -9 -61 -14 -3 -5 -5 -43 -3 -84 l2 -76 -65 0 -64 0 0 69 0 69
-57 -4 c-32 -3 -59 -7 -62 -10 -3 -2 -4 -31 -3 -64 l1 -60 -103 0 -102 0 -2
38 c-2 20 -5 62 -8 92 -2 30 -7 82 -9 115 -2 33 -7 86 -9 118 -3 31 -2 57 2
58 4 1 147 2 319 3 172 1 315 5 319 9 4 4 9 49 10 101 l4 95 -141 -2 c-77 -1
-141 -3 -143 -4z"/>
<path d="M1221 1611 c-14 -9 -34 -101 -22 -101 7 0 5 -196 -3 -215 -3 -8 -1
-17 5 -20 5 -4 7 -11 3 -16 -3 -5 -3 -22 1 -38 8 -36 40 -46 64 -22 16 16 17
39 17 210 -1 159 -4 193 -16 201 -19 12 -31 12 -49 1z"/>
<path d="M1319 1548 c-6 -14 -3 -281 4 -285 16 -10 19 6 19 114 0 159 -1 173
-12 173 -5 0 -10 -1 -11 -2z"/>
<path d="M2019 1230 c-1 -3 0 -66 1 -140 1 -74 3 -176 4 -227 1 -50 4 -95 8
-99 6 -5 100 -9 111 -4 2 1 295 6 615 10 l173 3 -3 101 -3 101 -55 -1 c-30 -1
-169 -4 -307 -8 l-253 -6 -1 43 c-1 47 -8 129 -13 167 -3 14 -5 34 -5 46 -1
20 -6 21 -136 20 -74 0 -136 -2 -136 -6z"/>
</g>
</svg>
